<?xml version="1.0" standalone="no"?>
<!DOCTYPE svg PUBLIC "-//W3C//DTD SVG 20010904//EN"
 "http://www.w3.org/TR/2001/REC-SVG-20010904/DTD/svg10.dtd">
<svg version="1.0" xmlns="http://www.w3.org/2000/svg"
 width="700.000000pt" height="700.000000pt" viewBox="0 0 700.000000 700.000000"
 preserveAspectRatio="xMidYMid meet">
<metadata>
Created by potrace 1.14, written by Peter Selinger 2001-2017
</metadata>
<g transform="translate(0.000000,700.000000) scale(0.100000,-0.100000)"
fill="#000000" stroke="none">
<path d="M1195 6993 c-11 -1 -101 -4 -200 -7 -206 -5 -225 -7 -343 -37 -298
-74 -496 -249 -567 -500 -26 -91 -27 -99 -31 -224 -6 -182 27 -315 107 -432
32 -47 156 -173 170 -173 4 0 14 -6 21 -13 60 -57 285 -164 532 -252 155 -55
636 -206 701 -220 18 -3 262 -75 380 -111 266 -81 712 -240 843 -300 29 -13
56 -24 59 -24 4 0 25 -9 47 -19 23 -11 64 -29 91 -41 105 -45 405 -200 515
-265 571 -339 941 -729 1143 -1207 95 -225 145 -419 182 -708 20 -152 26 -525
12 -695 -33 -386 -126 -723 -287 -1040 -56 -111 -161 -289 -180 -305 -3 -3
-23 -30 -45 -60 -56 -77 -156 -192 -247 -282 l-78 -78 1490 0 1490 0 -19 37
c-10 21 -53 108 -94 193 -41 85 -125 259 -187 385 -62 127 -152 311 -200 410
-117 241 -362 741 -629 1288 -72 148 -131 274 -131 280 0 7 26 25 58 42 299
156 607 441 817 756 137 205 256 474 313 709 24 96 26 106 49 245 24 145 23
500 -1 660 -40 263 -118 506 -237 735 -59 113 -56 108 -141 235 -304 457 -783
799 -1323 946 -46 13 -54 15 -157 35 -223 43 -193 42 -2093 41 -995 -1 -1819
-3 -1830 -4z"/>
<path d="M0 2326 l0 -925 47 -58 c219 -269 520 -417 917 -449 144 -12 409 -6
495 11 12 2 42 7 65 9 111 14 291 75 388 131 250 147 371 394 362 740 -5 176
-50 367 -105 447 -11 14 -19 29 -19 34 0 14 -83 119 -134 169 -60 60 -133 119
-196 159 -25 16 -56 37 -70 46 -81 53 -320 162 -525 238 -157 59 -446 147
-772 238 -67 18 -189 54 -270 79 -81 25 -156 48 -165 51 -17 5 -18 -43 -18
-920z"/>
</g>
</svg>
