<svg clip-rule="evenodd" fill-rule="evenodd" stroke-linejoin="round" stroke-miterlimit="2" viewBox="0 0 500 500" xmlns="http://www.w3.org/2000/svg"><path d="m153.325 67.58c-24.823 0-38.282 11.451-38.282 31.018 0 22.643 16.289 29.241 65.197 43.103 96.472 27.437 123.272 64.055 123.272 119.575 0 32.542-11.315 59.915-33.259 79.846h116.676l-49.595-101.667c29.437-15.1 49.595-45.73 49.595-81.088 0-50.314-40.789-91.101-91.102-91.101-.186 0-.367.012-.553.013v-.013h-10.22zm-18.566 152.772c-7.688-2.08-14.886-4.238-21.687-6.466v72.275c8.91 12.978 23.61 20.328 44.731 20.328 33.634 0 44.29-14.095 44.29-34.095 0-26.455-17.487-38.338-67.334-52.042z" fill="#111" fill-rule="nonzero" transform="matrix(1.82577 0 0 1.82577 -206.444 -122.812)"/></svg>